<?xml version="1.0" encoding="UTF-8" standalone="no"?>
<!DOCTYPE svg PUBLIC "-//W3C//DTD SVG 1.1//EN" "http://www.w3.org/Graphics/SVG/1.1/DTD/svg11.dtd">
<svg width="100%" height="100%" viewBox="0 0 630 637" version="1.1" xmlns="http://www.w3.org/2000/svg" xmlns:xlink="http://www.w3.org/1999/xlink" xml:space="preserve" xmlns:serif="http://www.serif.com/" style="fill-rule:evenodd;clip-rule:evenodd;stroke-linejoin:round;stroke-miterlimit:2;">
    <g transform="matrix(1,0,0,1,-4299,-439)">
        <g id="leony-name" transform="matrix(1,0,0,1,-0.348481,-0.101655)">
            <rect x="4299.35" y="439.102" width="629.324" height="636.717" style="fill:none;"/>
            <clipPath id="_clip1">
                <rect x="4299.35" y="439.102" width="629.324" height="636.717"/>
            </clipPath>
            <g clip-path="url(#_clip1)">
                <g id="leony-name1" serif:id="leony-name" transform="matrix(5.55556,0,0,5.55556,819.912,-16942.9)">
                    <g>
                        <g transform="matrix(1,0,0,-1,626.371,3288.89)">
                            <path d="M27.99,104.436C27.792,105.625 27.274,106.658 26.488,107.423C24.893,108.975 22.287,109.353 19.682,108.405C12.763,105.888 7.714,97.35 8.659,89.761C9.098,86.236 9.884,82.793 10.643,79.464C11.189,77.073 11.753,74.601 12.183,72.121C12.392,70.917 12.154,70.376 11.123,69.709C8.343,67.906 5.945,65.783 3.995,63.401C0.487,59.11 -0.886,53.078 0.805,49.369C1.559,47.714 2.839,45.596 5.4,45.596C5.619,45.596 5.848,45.613 6.086,45.645C8.539,45.981 10.408,47.694 11.803,50.88C13.184,54.035 13.705,57.362 14.084,60.233C14.335,62.133 14.423,64.059 14.507,65.921C14.541,66.648 14.574,67.376 14.616,68.103C14.663,68.889 14.747,69.525 15.346,69.944L15.538,70.055C15.582,70.08 15.624,70.106 15.674,70.127L15.743,70.163L15.742,70.17C16.177,70.417 16.737,70.724 17.32,70.975C18.342,71.411 19.4,71.798 20.423,72.172C21.566,72.589 22.749,73.022 23.89,73.527C24.361,73.736 24.46,74.253 24.312,74.656C24.184,75.006 23.852,75.301 23.399,75.162C20.804,74.391 15.54,72.155 15.376,72.071C15.372,72.068 14.956,71.778 14.629,71.919C14.427,72.003 14.294,72.238 14.232,72.617C13.824,75.11 13.23,77.579 12.657,79.966C11.712,83.9 10.734,87.968 10.549,92.268C10.295,98.169 15.027,105.114 20.476,106.838C22.313,107.42 23.884,107.238 24.902,106.33C25.93,105.412 26.295,103.829 25.928,101.87C25.883,101.623 25.837,101.375 25.791,101.127C25.184,97.791 24.556,94.342 21.294,92.031C20.722,91.625 20.294,90.864 20.58,90.194C20.675,89.97 20.811,89.824 20.985,89.758C21.319,89.634 21.72,89.822 22.106,90.008L22.253,90.078C23.554,90.685 24.32,91.859 24.843,92.813C25.847,94.646 26.454,96.612 27.041,98.511C27.202,99.027 27.361,99.545 27.529,100.06C28.05,101.662 28.206,103.136 27.99,104.436M12.558,66.921C12.519,66.192 12.521,65.462 12.522,64.757C12.526,63.4 12.529,62.117 12.256,60.907C12.005,58.133 11.482,55.485 10.613,52.576C9.782,49.804 7.756,47.566 5.898,47.37C5.823,47.361 5.748,47.358 5.673,47.358C3.964,47.358 2.269,49.374 1.9,51.913C1.466,54.906 2.348,57.92 4.678,61.398C6.479,64.084 9.028,65.968 11.277,67.627C11.64,67.897 11.935,68.035 12.141,68.035C12.203,68.035 12.258,68.022 12.303,67.997C12.504,67.888 12.59,67.526 12.558,66.921" style="fill-rule:nonzero;"/>
                        </g>
                        <g transform="matrix(1,0,0,-1,626.361,3288.89)">
                            <path d="M5.411,45.504C2.777,45.504 1.477,47.688 0.727,49.331C-0.976,53.071 0.401,59.146 3.933,63.463C5.888,65.854 8.293,67.984 11.083,69.791C12.084,70.439 12.303,70.937 12.099,72.105C11.668,74.592 11.105,77.059 10.56,79.443C9.798,82.789 9.013,86.228 8.575,89.751C7.625,97.381 12.702,105.966 19.661,108.496C22.296,109.457 24.941,109.072 26.564,107.493C27.364,106.714 27.893,105.663 28.093,104.453C28.311,103.138 28.155,101.65 27.629,100.031C27.461,99.518 27.302,99 27.143,98.485C26.554,96.578 25.944,94.609 24.936,92.769C24.406,91.801 23.629,90.613 22.303,89.992L22.156,89.923C21.774,89.738 21.338,89.533 20.962,89.669C20.762,89.746 20.608,89.911 20.503,90.159C20.197,90.874 20.646,91.682 21.249,92.111C24.48,94.401 25.105,97.829 25.708,101.146L25.74,101.316C25.774,101.507 25.81,101.698 25.845,101.89C26.205,103.814 25.851,105.366 24.849,106.259C23.855,107.147 22.316,107.32 20.516,106.749C15.102,105.037 10.402,98.137 10.654,92.273C10.839,87.982 11.816,83.92 12.759,79.99L12.765,79.965C13.337,77.584 13.927,75.121 14.336,72.635C14.392,72.29 14.507,72.08 14.675,72.007C14.953,71.891 15.327,72.148 15.33,72.151C15.487,72.231 20.776,74.481 23.382,75.255C23.89,75.413 24.273,75.072 24.412,74.69C24.574,74.246 24.463,73.674 23.938,73.441C22.788,72.933 21.608,72.501 20.466,72.084L20.436,72.073C19.424,71.702 18.377,71.319 17.367,70.889C16.806,70.647 16.272,70.357 15.858,70.122L15.858,70.12L15.727,70.044C15.68,70.024 15.645,70.002 15.609,69.981L15.403,69.862C14.845,69.473 14.766,68.86 14.722,68.099C14.679,67.372 14.646,66.646 14.613,65.918C14.528,64.055 14.44,62.129 14.188,60.222C13.807,57.345 13.287,54.011 11.9,50.844C10.49,47.623 8.596,45.893 6.109,45.553C5.87,45.519 5.635,45.504 5.411,45.504M22.495,108.826C21.605,108.826 20.665,108.658 19.725,108.317C12.843,105.815 7.824,97.322 8.764,89.775C9.201,86.261 9.984,82.826 10.741,79.506C11.291,77.099 11.854,74.629 12.286,72.14C12.501,70.902 12.244,70.316 11.185,69.631C8.413,67.833 6.022,65.717 4.078,63.342C0.591,59.078 -0.775,53.089 0.901,49.411C1.628,47.815 2.886,45.694 5.411,45.694C5.626,45.694 5.853,45.711 6.083,45.741C8.5,46.072 10.345,47.767 11.727,50.921C13.102,54.064 13.622,57.383 14,60.246C14.251,62.147 14.339,64.069 14.422,65.927C14.456,66.655 14.49,67.383 14.531,68.11C14.579,68.923 14.667,69.581 15.301,70.023L15.501,70.14C15.555,70.171 15.598,70.197 15.647,70.217L15.705,70.255C16.131,70.497 16.696,70.807 17.293,71.063C18.307,71.497 19.357,71.881 20.371,72.252L20.401,72.263C21.539,72.679 22.717,73.11 23.86,73.616C24.279,73.801 24.365,74.264 24.234,74.624C24.12,74.935 23.832,75.19 23.436,75.072C20.841,74.301 15.577,72.063 15.429,71.988C15.431,71.988 14.98,71.667 14.601,71.833C14.369,71.931 14.216,72.191 14.149,72.604C13.742,75.084 13.151,77.541 12.581,79.919L12.574,79.946C11.629,83.884 10.649,87.956 10.464,92.265C10.208,98.205 14.972,105.195 20.459,106.931C22.325,107.522 23.93,107.334 24.974,106.404C26.029,105.463 26.405,103.847 26.032,101.854C25.997,101.664 25.961,101.473 25.926,101.281L25.895,101.111C25.284,97.757 24.653,94.289 21.358,91.954C20.818,91.571 20.411,90.856 20.677,90.233C20.762,90.034 20.88,89.905 21.029,89.849C21.33,89.737 21.726,89.927 22.075,90.095L22.223,90.165C23.499,90.762 24.254,91.919 24.77,92.86C25.769,94.684 26.375,96.645 26.961,98.541C27.121,99.058 27.281,99.575 27.449,100.091C27.965,101.68 28.119,103.136 27.906,104.421C27.713,105.591 27.202,106.605 26.433,107.355C25.437,108.324 24.039,108.826 22.495,108.826M5.683,47.264C3.923,47.264 2.188,49.344 1.816,51.901C1.378,54.919 2.267,57.954 4.61,61.452C6.42,64.154 8.976,66.042 11.231,67.707C11.74,68.083 12.117,68.214 12.357,68.083C12.597,67.954 12.697,67.572 12.663,66.918C12.624,66.19 12.626,65.462 12.627,64.758C12.631,63.397 12.634,62.11 12.359,60.887C12.109,58.119 11.586,55.466 10.713,52.551C9.873,49.743 7.812,47.476 5.919,47.276C5.84,47.268 5.761,47.264 5.683,47.264M12.151,67.941C12.022,67.941 11.778,67.874 11.343,67.552C9.101,65.897 6.559,64.02 4.767,61.346C2.451,57.889 1.574,54.897 2.005,51.93C2.362,49.462 4.013,47.454 5.683,47.454C5.754,47.454 5.827,47.458 5.899,47.467C7.721,47.659 9.711,49.868 10.532,52.606C11.4,55.509 11.921,58.15 12.173,60.917C12.444,62.131 12.441,63.408 12.437,64.758C12.436,65.465 12.434,66.194 12.473,66.927C12.512,67.669 12.362,67.865 12.268,67.916C12.236,67.932 12.196,67.941 12.151,67.941" style="fill-rule:nonzero;"/>
                        </g>
                        <g transform="matrix(1,0,0,-1,627.582,3176.88)">
                            <path d="M14.772,1.942C20.253,2.535 25.466,3.127 30.635,3.666C31.69,3.775 32.754,3.828 33.818,3.88C35.677,3.989 37.714,3.989 38.754,5.552C38.971,5.875 39.623,5.821 39.888,5.497C40.216,5.121 40.338,4.69 40.182,4.312C39.718,3.181 38.738,2.589 37.548,2.32C36.357,2.05 35.043,1.888 33.774,1.779C30.6,1.511 27.479,1.242 24.367,0.92C22.678,0.756 21.005,0.488 19.315,0.327C16.99,0.11 14.665,-0.105 12.533,-0.859C12.38,-0.913 12.228,-0.968 12.067,-0.968C11.585,-0.968 11.237,-0.805 11.009,-0.374C10.859,-0.105 10.853,0.272 10.918,0.542C10.947,0.704 11.09,0.811 11.18,0.92C12.534,2.535 13.252,5.121 13.626,7.167C15.292,16.325 17.263,24.566 18.813,33.779C20.239,42.076 21.119,49.078 23.004,48C23.475,47.731 23.783,47.139 23.637,46.708C23.6,46.599 23.555,46.547 23.564,46.493C22.145,40.19 21.36,35.987 20.422,30.71C18.979,22.52 17.09,14.44 15.869,6.198C15.661,4.798 15.176,3.451 14.772,1.942" style="fill-rule:nonzero;"/>
                        </g>
                        <g transform="matrix(1,0,0,-1,629.773,3190.95)">
                            <path d="M45.182,28.336C44.232,26.881 39.33,22.948 38.144,22.302C34.941,20.525 31.72,23.272 30.937,25.858C29.581,30.382 30.952,37.332 34.212,38.41C36.811,39.27 39.018,37.171 38.696,34.8C38.522,33.507 38.226,32.322 37.415,31.352C36.873,30.706 36.208,30.167 35.251,30.113C34.242,30.06 33.505,30.651 32.718,31.568C32.084,28.444 32.448,25.803 34.293,24.295C34.967,23.757 35.734,23.649 36.388,23.918C38.201,24.673 42.165,27.744 43.485,29.576C43.882,30.113 44.303,30.167 44.72,29.898C45.253,29.576 45.524,28.875 45.182,28.336M33.736,33.615C34.292,32.808 34.811,31.891 35.368,32.43C36.251,33.293 36.744,34.584 36.549,35.824C36.473,36.309 35.77,36.686 35.313,36.523C34.552,36.254 33.992,35.716 33.676,35.015C33.475,34.584 33.39,34.099 33.736,33.615" style="fill-rule:nonzero;"/>
                        </g>
                        <g transform="matrix(1,0,0,-1,631.035,3195.47)">
                            <path d="M51.679,32.594C51.522,31.893 51.347,31.301 51.172,30.707C50.511,28.446 49.609,26.345 47.941,24.674C47.473,24.244 46.898,23.812 46.307,23.489C44.923,22.735 43.428,23.382 42.584,24.998C41.898,26.289 41.739,27.636 41.696,28.931C41.596,31.947 41.941,34.855 43.071,37.55C43.427,38.356 43.942,39.166 44.475,39.866C45.623,41.428 47.101,41.913 48.597,41.267C50.493,40.458 51.428,38.949 51.671,37.065C51.731,36.687 51.745,36.255 51.752,35.879C51.664,35.071 52.108,34.639 52.855,34.317C53.149,34.154 53.503,33.94 53.78,33.885C55.324,33.617 55.879,33.832 56.305,34.532C56.477,34.803 56.534,35.125 56.714,35.34C57.029,35.718 57.405,35.718 57.805,35.556C58.207,35.396 58.489,34.964 58.449,34.532C58.329,32.917 57.275,31.784 55.612,31.784C55.076,31.784 53.765,31.947 53.211,32.054C52.766,32.162 52.249,32.378 51.679,32.594M49.457,34.102C47.75,36.095 47.75,36.095 47.278,39.435C46.129,38.897 45.593,37.872 45.164,36.849C43.781,33.724 43.458,30.331 43.92,26.721C44.625,22.25 49.356,29.306 49.457,34.102" style="fill-rule:nonzero;"/>
                        </g>
                        <g transform="matrix(1,0,0,-1,632.488,3194.71)">
                            <path d="M66.282,17.014C65.157,17.014 64.073,17.768 63.788,18.899C63.456,19.977 63.341,21.053 63.448,22.077C63.656,24.502 64.148,26.817 64.871,29.027C65.42,30.643 66.023,32.26 66.52,33.875C66.905,35.167 67.184,36.462 67.462,37.753C68.699,43.517 62.518,36.137 59.477,29.242C59.167,28.488 58.902,27.788 58.583,27.088C58.383,26.656 58.121,26.279 57.797,25.955C56.832,24.932 54.71,25.471 54.643,26.926C54.588,27.95 54.882,33.229 55.824,39.155C56.052,40.77 57.663,40.07 57.847,39.585C58.344,38.131 56.489,30.859 56.6,28.112C57,28.973 57.311,29.728 57.673,30.482C61.467,38.723 68.062,46.534 69.319,39.585C69.517,38.67 69.553,37.753 69.368,36.891C69.086,35.276 68.636,33.713 68.184,32.151C67.542,30.104 66.83,28.165 66.295,26.118C65.906,24.502 65.687,22.831 65.459,21.216C65.086,18.146 67.256,19.008 68.87,21C71.68,24.61 73.569,29.619 75.055,33.12C75.483,34.144 77.269,33.014 76.751,31.882C74.64,27.249 70.517,17.014 66.282,17.014" style="fill-rule:nonzero;"/>
                        </g>
                        <g transform="matrix(1,0,0,-1,634.469,3218.07)">
                            <path d="M95.659,51.953C95.927,51.953 96.196,51.953 96.427,51.845C97.877,51.146 98.785,48.451 97.557,49.1C94.497,50.822 92.18,49.206 88.828,46.998C88.344,46.675 88.09,46.244 88.022,45.652C87.761,43.226 87.232,40.803 86.8,38.433C86.157,35.038 85.22,31.807 83.578,28.952C82.654,27.336 81.604,25.827 80.245,24.588C79.542,23.942 78.664,23.402 77.757,23.025C76.198,22.379 74.068,22.971 73.381,25.288C73.154,26.041 73.035,26.796 72.979,27.497C72.84,29.059 73.138,30.567 73.561,31.968C74.37,34.661 75.587,37.14 77.276,39.348C79.498,42.257 81.968,44.951 85.014,47.052C85.886,47.644 86.347,48.451 86.384,49.583C86.442,51.253 86.554,52.923 86.496,54.646C86.46,55.562 86.262,56.478 86.073,57.341C85.891,58.148 85.135,58.525 84.559,58.094C83.553,57.341 82.502,56.533 81.626,55.618C79.924,53.84 78.451,51.953 77.05,49.96C76.571,49.26 76.03,48.614 75.604,47.913C75.387,47.59 75.107,47.321 74.82,47.104C73.714,46.297 72.453,47.159 72.399,48.183C72.379,48.991 72.189,49.853 72.339,50.607C72.955,53.84 73.562,57.125 74.063,60.411C74.223,61.436 74.5,62.404 74.33,63.481C74.245,64.02 74.721,64.397 75.266,64.343C75.758,64.29 76.298,63.912 76.428,63.427C76.655,62.673 76.55,61.973 76.393,61.273C76.049,59.711 75.697,58.203 75.408,56.64C75.089,54.917 74.656,53.247 74.507,51.47C74.487,51.253 74.575,51.038 74.652,50.553C75.095,51.146 75.509,51.575 75.816,52.007C77.525,54.431 79.349,56.802 81.625,58.687C82.336,59.279 83.109,59.82 83.961,60.194C85.467,60.843 86.863,60.142 87.716,58.472C89.168,55.724 88.43,52.923 88.582,49.583C91.766,51.146 92.335,51.953 95.659,51.953M85.746,44.789C85.692,44.789 85.261,44.466 85.215,44.411C82.006,41.987 78.382,38.108 76.497,33.745C75.632,31.752 74.891,29.651 74.988,27.336C75.01,26.85 75.087,26.366 75.217,25.881C75.461,25.018 76.217,24.642 76.97,24.966C78.126,25.45 79.017,26.257 79.776,27.227C81.166,28.952 82.255,30.89 83.049,32.991C84.381,36.439 84.77,38.056 85.605,43.98C85.641,44.088 85.816,44.681 85.746,44.789" style="fill-rule:nonzero;"/>
                        </g>
                        <g transform="matrix(1,0,0,-1,629.734,3246.28)">
                            <path d="M79.566,58.916C79.31,59.273 78.882,59.492 78.514,59.451C78.246,59.418 78.037,59.257 77.928,58.996C77.778,58.641 77.622,58.267 77.461,57.879C76.367,55.249 75.005,51.976 73.107,49.536C72.265,48.497 71.443,48.096 71.107,48.241C70.856,48.348 70.762,48.816 70.848,49.521L70.891,49.834C71.054,50.994 71.222,52.193 71.499,53.344C71.776,54.408 72.109,55.415 72.463,56.481C72.636,57.005 72.811,57.533 72.981,58.075C73.33,59.286 73.692,60.538 73.913,61.813C74.059,62.489 74.047,63.233 73.876,64.022C73.622,65.434 73.07,66.205 72.237,66.31C72.175,66.319 72.111,66.323 72.048,66.323C69.812,66.323 66.414,61.558 64.285,56.934C64.171,56.696 64.063,56.457 63.955,56.213C64.052,57.155 64.245,58.317 64.433,59.453C64.785,61.566 65.088,63.39 64.858,64.063C64.737,64.382 64.182,64.712 63.67,64.662C63.451,64.638 62.927,64.491 62.813,63.677C62.519,61.833 62.308,60.077 62.16,58.571C62.122,58.513 62.087,58.455 62.063,58.381C61.829,57.636 58.674,51.482 56.457,50.14C56.358,50.08 56.234,50.065 56.112,50.105C55.963,50.151 55.837,50.264 55.77,50.413C55.684,50.606 55.586,50.803 55.486,50.999C55.286,51.4 55.078,51.812 54.992,52.186C54.726,53.389 54.504,54.677 54.684,55.953C54.853,57.241 55.029,58.575 55.159,59.892C55.2,60.284 55.276,60.675 55.348,61.054C55.424,61.446 55.5,61.85 55.544,62.262C55.612,62.944 55.433,63.487 55.04,63.795C54.774,64 54.299,64.19 53.522,63.902C53.441,63.874 53.357,63.845 53.243,63.816C53.058,63.993 52.892,64.163 52.736,64.324C52.509,64.558 52.3,64.773 52.081,64.963C51.268,65.668 50.227,65.987 49.07,65.876C47.574,65.734 45.99,64.866 45.035,63.659C44.443,62.896 43.941,62.084 43.523,61.216C43.5,61.21 40.426,57.174 39.366,59.135C39.002,59.81 38.92,60.352 39.002,60.884C39.057,61.152 39.096,61.435 39.136,61.723C39.165,61.936 39.195,62.154 39.231,62.362C39.305,62.704 39.372,63.089 39.441,63.498C39.474,63.999 39.115,64.515 38.652,64.66C38.392,64.781 38.09,64.787 37.839,64.68C37.629,64.59 37.476,64.428 37.407,64.224C37.283,63.86 37.175,63.476 37.102,63.135C36.479,59.961 35.295,57.086 34.034,54.177C33.955,53.996 33.832,53.801 33.703,53.645C33.689,53.632 33.648,53.616 33.611,53.607L33.504,53.67L33.418,54.03C33.304,54.498 33.196,54.94 33.194,55.355C33.147,57.268 33.135,59.247 33.128,61.112C33.117,61.354 33.111,61.593 33.104,61.835C33.088,62.357 33.073,62.895 33.016,63.431C33.01,63.735 32.922,64.098 32.755,64.475C32.598,64.758 32.298,64.993 32.062,65.123C31.502,65.404 30.845,65.261 30.424,64.756C29.964,64.143 29.965,63.434 30.43,63.031C31.048,62.527 31.084,62.031 31.071,61.272C31.06,59.948 31.088,58.588 31.115,57.272C31.13,56.557 31.144,55.844 31.153,55.134C31.169,54.165 31.53,53.154 31.842,52.386C32.11,51.697 32.632,51.195 33.243,51.044C33.366,51.013 33.49,50.998 33.61,50.998C33.952,50.998 34.275,51.12 34.536,51.349C35.069,51.731 35.522,52.29 35.84,52.95C36.241,53.675 36.556,54.468 36.86,55.236L37.087,55.804C37.253,56.184 37.399,56.588 37.567,57.054C37.646,57.276 37.73,57.511 37.824,57.762C38.103,57.491 38.245,57.339 38.36,57.213C39.047,56.508 39.867,56.289 40.796,56.559C41.338,56.723 41.805,56.909 42.238,57.113C42.204,56.917 42.167,56.725 42.138,56.525C42.078,56.101 42.063,55.615 42.097,55.121C42.217,53.355 42.971,52.066 44.112,51.673C45.171,51.306 46.389,51.79 47.454,52.991C48.023,53.637 48.537,54.303 49.08,55.009C49.356,55.366 49.634,55.727 49.922,56.088C50.456,56.758 50.977,57.459 51.482,58.138C51.75,58.498 52.019,58.86 52.291,59.218C52.489,59.468 52.587,59.494 52.588,59.501C52.674,59.435 52.813,58.918 52.671,57.792C52.413,55.906 52.506,53.943 52.949,51.959C53.127,51.124 53.441,50.343 53.882,49.637C54.515,48.649 55.276,48.156 56.154,48.156C56.626,48.156 57.131,48.297 57.668,48.582C58.612,49.068 60.483,51.468 61.942,53.73C62.064,53.289 62.394,52.928 62.888,52.744C63.566,52.491 64.324,52.64 64.763,53.107C65.036,53.378 65.261,53.701 65.43,54.066C65.604,54.448 65.758,54.831 65.917,55.228L66.133,55.759C68.179,60.397 71.347,64.143 71.974,63.924C71.976,63.924 72.215,63.809 71.947,62.559C71.734,61.576 71.515,60.558 71.218,59.564C70.962,58.728 70.662,57.875 70.372,57.05C70.222,56.622 70.072,56.193 69.926,55.763C69.334,53.96 68.955,52.106 68.797,50.257C68.709,49.419 68.803,48.547 69.07,47.677C69.312,46.715 70.233,46.017 71.258,46.017C74.425,46.017 77.405,52.704 79.186,56.698C79.369,57.107 79.538,57.489 79.694,57.83C79.857,58.184 79.81,58.579 79.566,58.916M51.628,61.933C50.443,60.518 49.318,59.019 48.231,57.57C47.549,56.659 46.867,55.752 46.171,54.863C45.473,53.979 44.857,53.548 44.521,53.71C44.11,53.91 43.925,55.1 44.369,56.986C44.776,58.719 45.359,60.175 46.151,61.439C46.93,62.674 47.916,63.393 49.248,63.702C49.419,63.74 49.589,63.759 49.754,63.759C50.623,63.759 51.368,63.243 51.689,62.375C51.739,62.238 51.71,62.031 51.628,61.933" style="fill-rule:nonzero;"/>
                        </g>
                        <g transform="matrix(1,0,0,-1,628.635,3299.35)">
                            <path d="M35.032,80.013C33.486,78.441 31.962,76.777 30.297,75.292C29.405,74.4 28.267,73.727 27.187,73.011C26.724,72.732 26.201,72.496 25.657,72.352C23.703,71.848 21.923,72.796 21.048,74.781C20.498,76.027 20.222,77.345 20.288,78.645C20.311,80.706 20.548,82.691 21.032,84.649C21.407,86.071 22.005,87.369 22.887,88.499C23.411,89.119 24.005,89.65 24.799,89.957C26.376,90.62 28.216,89.821 28.797,88.05C29.424,86.092 29.319,84.167 28.434,82.461C28.268,82.159 27.912,82.034 27.535,82.192C27.11,82.347 26.875,82.71 26.924,83.097C26.951,83.58 27.083,84.021 27.157,84.508C27.352,85.482 27.405,86.444 27.15,87.477C26.976,88.182 26.163,88.542 25.57,88.203C25.273,88.035 24.977,87.864 24.75,87.606C24.441,87.292 24.107,86.879 23.917,86.479C22.351,83.613 21.99,80.372 22.253,76.946C22.309,76.327 22.566,75.679 22.869,75.034C23.208,74.249 24.198,73.76 24.946,74.063C25.776,74.422 26.546,74.825 27.295,75.32C29.277,76.689 30.93,78.221 32.525,79.987C33.632,81.184 34.096,81.848 35.214,82.998C36.559,84.408 38.886,83.987 35.032,80.013" style="fill-rule:nonzero;"/>
                        </g>
                        <g transform="matrix(1,0,0,-1,628.627,3299.5)">
                            <path d="M24.628,72.272C23.06,72.272 21.711,73.214 20.97,74.893C20.395,76.199 20.137,77.512 20.203,78.8C20.227,80.919 20.472,82.89 20.95,84.824C21.342,86.313 21.971,87.619 22.822,88.708C23.449,89.452 24.069,89.924 24.775,90.196C25.554,90.524 26.442,90.511 27.211,90.159C28.01,89.793 28.61,89.108 28.897,88.231C29.54,86.228 29.412,84.27 28.53,82.568C28.328,82.207 27.919,82.081 27.508,82.256C27.055,82.419 26.785,82.824 26.84,83.26C26.856,83.563 26.917,83.862 26.976,84.15C27.01,84.321 27.046,84.493 27.073,84.672C27.293,85.771 27.291,86.702 27.067,87.604C26.99,87.918 26.774,88.172 26.47,88.303C26.185,88.426 25.878,88.414 25.626,88.271C25.343,88.11 25.051,87.943 24.832,87.694C24.47,87.327 24.173,86.926 24.012,86.589C22.605,84.013 22.065,80.912 22.357,77.104C22.416,76.456 22.713,75.761 22.966,75.226C23.29,74.473 24.24,74.026 24.92,74.303C25.788,74.677 26.551,75.087 27.252,75.55C29.086,76.816 30.743,78.295 32.463,80.204C32.95,80.729 33.311,81.15 33.661,81.558C34.107,82.078 34.528,82.569 35.156,83.216C35.674,83.758 36.38,84.071 36.83,83.957C37.034,83.906 37.171,83.777 37.227,83.581C37.411,82.932 36.66,81.695 35.109,80.098L35.109,80.097C34.703,79.684 34.298,79.265 33.894,78.845C32.766,77.677 31.6,76.469 30.37,75.371C29.632,74.632 28.71,74.033 27.819,73.456C27.628,73.332 27.438,73.208 27.248,73.083C26.747,72.779 26.209,72.548 25.691,72.411C25.329,72.317 24.973,72.272 24.628,72.272M25.952,90.245C25.578,90.245 25.204,90.17 24.846,90.02C24.159,89.754 23.581,89.313 22.969,88.588C22.137,87.522 21.519,86.238 21.134,84.776C20.66,82.858 20.418,80.901 20.393,78.795C20.329,77.532 20.581,76.248 21.144,74.971C22.008,73.013 23.733,72.103 25.644,72.595C26.144,72.728 26.665,72.951 27.147,73.244C27.333,73.367 27.524,73.491 27.716,73.616C28.599,74.189 29.512,74.782 30.24,75.512C31.469,76.607 32.631,77.813 33.757,78.978C34.163,79.398 34.568,79.818 34.973,80.231C37.132,82.456 37.104,83.317 37.044,83.529C37.008,83.656 36.921,83.738 36.784,83.771C36.455,83.855 35.823,83.639 35.293,83.083C34.668,82.44 34.248,81.951 33.805,81.433C33.454,81.024 33.092,80.602 32.603,80.074C30.873,78.156 29.206,76.668 27.359,75.393C26.647,74.92 25.874,74.506 24.993,74.126C24.207,73.808 23.16,74.296 22.792,75.147C22.519,75.726 22.229,76.412 22.168,77.087C21.872,80.935 22.42,84.072 23.843,86.675C24.073,87.158 24.475,87.603 24.693,87.824C24.93,88.093 25.25,88.277 25.532,88.437C25.835,88.61 26.204,88.626 26.546,88.479C26.904,88.323 27.161,88.022 27.252,87.651C27.482,86.72 27.484,85.763 27.261,84.64C27.233,84.462 27.197,84.285 27.162,84.111C27.102,83.817 27.045,83.539 27.028,83.242C26.984,82.885 27.2,82.57 27.577,82.432C27.898,82.299 28.213,82.39 28.362,82.659C29.219,84.312 29.342,86.219 28.717,88.173C28.446,88.997 27.884,89.64 27.132,89.985C26.754,90.159 26.353,90.245 25.952,90.245" style="fill-rule:nonzero;"/>
                        </g>
                        <g transform="matrix(1,0,0,-1,630.053,3287.9)">
                            <path d="M35.455,69.523C35.602,68.145 35.416,66.741 35.824,65.673C36.368,65.625 36.453,66.063 36.726,66.326C37.892,67.481 38.893,68.717 40.057,69.871C41.378,71.183 42.646,71.724 43.633,70.469C43.985,70.018 44.065,69.499 44.086,69.022C44.15,67.782 44.108,66.58 44.16,65.387C44.19,64.286 44.254,63.24 44.319,62.191C44.341,61.904 44.422,61.576 44.575,61.35C45.423,60.36 47.037,61.777 47.359,62.236C48.304,62.986 50.572,68.023 51.4,69.963C51.616,70.462 51.89,70.916 52.153,71.418C53.403,72.819 53.9,70.802 51.925,66.655C51.291,65.306 50.598,64.001 49.915,62.649C49.628,62.048 48.306,60.355 47.973,60.133C46.609,59.201 43.732,58.273 42.833,60.96C42.591,61.753 42.44,62.556 42.398,63.317C42.335,64.75 42.414,66.193 42.363,67.579C42.354,68.01 42.643,68.993 41.944,68.885C40.817,68.165 39.959,67.133 39.091,66.148C38.448,65.421 37.853,64.699 37.246,64.024C36.901,63.658 36.544,63.34 36.117,63.112C35.429,62.765 34.378,63.105 34.112,63.992C33.102,67.307 32.2,81.907 33.751,87.775C34.154,89.294 34.88,90.652 35.821,91.931C36.381,92.6 37.059,93.186 37.888,93.546C39.596,94.267 41.094,93.487 41.889,92.022C42.404,91.108 42.624,90.217 42.666,89.262C42.807,87.119 42.44,85.076 41.874,83.061C40.819,79.138 37.456,73.96 36.143,71.833C35.69,71.124 35.378,70.426 35.455,69.523M34.898,75.433C35.168,72.275 39.163,80.528 40.285,84.601C40.732,86.125 40.966,87.727 40.857,89.346C40.789,90.01 40.58,90.663 40.335,91.266C40.008,92.004 38.394,93.101 36.567,90.308C34.442,86.812 34.583,79.119 34.898,75.433" style="fill-rule:nonzero;"/>
                        </g>
                        <g transform="matrix(1,0,0,-1,630.043,3287.09)">
                            <path d="M45.19,58.287C44.881,58.287 44.581,58.329 44.302,58.423C43.568,58.672 43.046,59.244 42.753,60.121C42.504,60.933 42.356,61.734 42.313,62.504C42.28,63.254 42.286,64.014 42.291,64.748C42.297,65.416 42.302,66.106 42.278,66.768C42.276,66.869 42.288,66.991 42.301,67.122C42.331,67.422 42.369,67.795 42.227,67.932C42.174,67.981 42.099,67.999 41.987,67.987C40.98,67.337 40.178,66.423 39.403,65.539L39.172,65.276C38.873,64.939 38.587,64.604 38.304,64.274C37.968,63.884 37.652,63.515 37.326,63.151C36.912,62.712 36.556,62.425 36.171,62.219C35.793,62.029 35.315,62.028 34.888,62.21C34.463,62.393 34.159,62.73 34.03,63.156C32.967,66.646 32.141,81.209 33.67,86.992C34.046,88.414 34.727,89.784 35.754,91.179C36.393,91.943 37.101,92.496 37.86,92.825C39.476,93.51 41.094,92.893 41.982,91.259C42.474,90.387 42.725,89.498 42.77,88.459C42.894,86.577 42.641,84.596 41.975,82.226C41.01,78.64 38.161,74.068 36.63,71.611C36.483,71.377 36.35,71.164 36.233,70.975C35.836,70.353 35.48,69.653 35.56,68.724C35.613,68.229 35.623,67.732 35.632,67.25C35.649,66.412 35.665,65.618 35.901,64.957L35.915,64.956C36.199,64.956 36.314,65.122 36.459,65.325C36.522,65.415 36.588,65.506 36.67,65.586C37.252,66.163 37.802,66.771 38.335,67.358C38.867,67.945 39.417,68.553 40,69.131C40.947,70.07 41.749,70.496 42.456,70.462C42.928,70.433 43.352,70.183 43.718,69.718C44.099,69.231 44.171,68.66 44.191,68.218C44.224,67.561 44.228,66.909 44.233,66.276C44.236,65.72 44.24,65.144 44.264,64.582C44.295,63.458 44.363,62.358 44.423,61.388C44.448,61.079 44.538,60.782 44.663,60.594C44.845,60.385 45.089,60.283 45.383,60.295C46.165,60.334 47.064,61.161 47.291,61.484L47.31,61.504C48.187,62.199 50.318,66.837 51.323,69.192C51.473,69.539 51.648,69.859 51.832,70.196C51.913,70.346 51.997,70.499 52.079,70.655C52.607,71.251 52.923,71.177 53.065,71.082C53.617,70.71 53.437,68.778 52.02,65.806C51.573,64.854 51.086,63.904 50.616,62.985C50.414,62.591 50.211,62.197 50.009,61.797C49.726,61.205 48.398,59.486 48.036,59.245C47.262,58.717 46.179,58.287 45.19,58.287M42.053,68.181C42.179,68.181 42.28,68.143 42.358,68.07C42.568,67.87 42.527,67.463 42.49,67.102C42.478,66.978 42.466,66.861 42.468,66.773C42.492,66.108 42.487,65.416 42.481,64.747C42.476,64.015 42.47,63.257 42.502,62.512C42.545,61.761 42.69,60.974 42.934,60.179C43.206,59.364 43.687,58.833 44.363,58.604C45.469,58.231 46.952,58.736 47.931,59.404C48.24,59.61 49.549,61.274 49.839,61.882C50.042,62.283 50.244,62.679 50.447,63.072C50.917,63.989 51.403,64.938 51.849,65.888C53.272,68.875 53.353,70.659 52.959,70.923C52.804,71.029 52.541,70.89 52.234,70.547C52.165,70.408 52.081,70.256 51.999,70.105C51.816,69.772 51.643,69.456 51.498,69.116C51.379,68.838 48.578,62.293 47.438,61.363C47.178,61 46.241,60.146 45.392,60.104C45.049,60.081 44.741,60.213 44.512,60.478C44.36,60.704 44.261,61.028 44.234,61.375C44.174,62.348 44.105,63.45 44.074,64.576C44.049,65.139 44.046,65.717 44.043,66.275C44.038,66.904 44.035,67.555 44,68.209C43.982,68.649 43.915,69.158 43.568,69.6C43.234,70.026 42.866,70.245 42.445,70.272C41.802,70.315 41.027,69.883 40.135,68.995C39.554,68.42 39.006,67.814 38.475,67.229C37.941,66.64 37.389,66.03 36.803,65.45C36.731,65.382 36.675,65.301 36.614,65.215C36.453,64.989 36.279,64.722 35.825,64.77L35.766,64.776L35.745,64.83C35.477,65.533 35.46,66.366 35.442,67.247C35.432,67.724 35.422,68.218 35.371,68.705L35.371,68.707C35.286,69.693 35.658,70.428 36.073,71.076C36.189,71.265 36.322,71.479 36.468,71.713C37.995,74.161 40.834,78.717 41.792,82.278C42.452,84.627 42.704,86.587 42.581,88.448C42.536,89.458 42.293,90.321 41.816,91.166C40.965,92.734 39.478,93.299 37.935,92.651C37.203,92.333 36.519,91.798 35.904,91.06C34.895,89.689 34.222,88.341 33.853,86.943C32.331,81.186 33.154,66.688 34.212,63.212C34.324,62.841 34.591,62.547 34.963,62.386C35.338,62.224 35.757,62.224 36.084,62.389C36.448,62.583 36.788,62.858 37.186,63.28C37.51,63.641 37.826,64.009 38.159,64.399C38.443,64.73 38.731,65.066 39.03,65.403L39.26,65.665C40.049,66.564 40.864,67.494 41.903,68.158L41.94,68.171C41.98,68.178 42.018,68.181 42.053,68.181M35.273,73.825L35.243,73.826C34.878,73.861 34.829,74.43 34.813,74.617C34.72,75.708 33.976,85.402 36.496,89.55C37.552,91.165 38.5,91.452 39.115,91.394C39.771,91.339 40.257,90.891 40.432,90.496C40.73,89.764 40.902,89.126 40.961,88.548C41.063,87.027 40.871,85.418 40.386,83.766C39.917,82.064 38.938,79.594 37.894,77.478C37.216,76.105 35.984,73.825 35.273,73.825M35.002,74.634C35.035,74.249 35.127,74.03 35.261,74.017L35.28,74.015C36.224,74.015 39.212,80.22 40.204,83.818C40.682,85.452 40.873,87.037 40.772,88.531C40.715,89.088 40.547,89.708 40.257,90.421C40.106,90.763 39.678,91.156 39.1,91.204C38.534,91.25 37.659,90.981 36.656,89.448C34.169,85.355 34.91,75.719 35.002,74.634" style="fill-rule:nonzero;"/>
                        </g>
                        <g transform="matrix(1,0,0,-1,631.865,3301.97)">
                            <path d="M60.556,89.508C60.782,89.576 60.912,89.636 61.042,89.695C62.299,90.282 63.099,89.583 63.08,88.289C63.064,87.377 62.892,86.499 62.876,85.587C62.856,84.1 62.788,82.609 62.72,81.119C62.641,79.674 62.988,78.266 63.441,76.82C63.65,76.167 64.155,75.493 64.506,74.853C64.763,74.395 65.33,74.253 65.698,74.524C68.157,76.316 71.107,83.567 71.314,84.495C71.519,85.423 73.075,84.407 72.953,83.726C72.538,81.488 68.5,74.335 66.91,73.336C65.45,72.394 64.115,72.518 62.905,74.092C62.33,74.856 61.933,75.685 61.677,76.526C61.003,78.671 60.708,80.848 60.815,82.966C60.884,84.65 60.536,85.864 59.761,84.695C58.961,83.429 58.208,82.166 57.397,80.946C56.551,79.676 55.798,78.413 54.928,77.236C52.641,74.164 49.749,75.304 49.18,78.992C49.098,79.512 49.066,80.037 49.093,80.517C49.264,83.551 50.048,86.254 51.623,88.689C53.102,90.925 56.564,92.566 59.038,90.765C59.508,90.424 59.956,89.983 60.556,89.508M59.196,87.379C59.339,87.583 59.353,87.92 59.248,88.149C58.641,89.439 57.306,89.946 56.051,89.551C54.44,89.028 53.381,88.026 52.628,86.572C51.779,84.918 51.296,83.152 51.025,81.307C50.484,77.62 51.668,75.757 53.744,78.907C55.569,81.699 57.264,84.624 59.196,87.379" style="fill-rule:nonzero;"/>
                        </g>
                        <g transform="matrix(1,0,0,-1,631.857,3302.71)">
                            <path d="M65.174,73.384C64.327,73.384 63.555,73.847 62.84,74.777C62.288,75.511 61.87,76.339 61.596,77.24C60.915,79.411 60.623,81.59 60.73,83.714C60.783,85.045 60.573,85.728 60.355,85.8C60.233,85.836 60.053,85.693 59.849,85.386C59.574,84.951 59.304,84.514 59.035,84.08C58.535,83.273 58.019,82.437 57.486,81.637C57.197,81.203 56.919,80.77 56.643,80.341C56.101,79.497 55.588,78.699 55.014,77.922C53.975,76.526 52.716,75.891 51.564,76.18C50.312,76.494 49.389,77.817 49.095,79.72C49.012,80.257 48.982,80.792 49.008,81.266C49.186,84.422 50.018,87.111 51.552,89.485C52.487,90.896 54.138,91.997 55.763,92.291C57.004,92.516 58.16,92.273 59.103,91.587C59.364,91.398 59.619,91.177 59.889,90.943C60.107,90.754 60.332,90.56 60.585,90.358C60.769,90.415 60.886,90.467 60.999,90.518C61.774,90.881 62.27,90.739 62.551,90.556C62.97,90.282 63.196,89.741 63.186,89.03C63.177,88.569 63.129,88.111 63.082,87.669C63.037,87.232 62.989,86.78 62.98,86.329C62.96,84.812 62.888,83.241 62.825,81.857C62.744,80.379 63.121,78.934 63.541,77.593C63.681,77.159 63.959,76.706 64.228,76.268C64.354,76.062 64.486,75.849 64.599,75.642C64.715,75.436 64.908,75.291 65.13,75.243C65.323,75.202 65.507,75.237 65.652,75.344C68.102,77.131 71.03,84.357 71.231,85.259C71.307,85.601 71.569,85.765 71.93,85.688C72.485,85.576 73.144,84.944 73.056,84.453C72.641,82.208 68.633,75.043 66.97,73.998C66.335,73.589 65.738,73.384 65.174,73.384M60.311,85.998C60.346,85.998 60.381,85.993 60.414,85.982C60.962,85.803 60.94,84.194 60.92,83.705C60.813,81.602 61.103,79.447 61.778,77.297C62.045,76.416 62.453,75.608 62.99,74.894C64.109,73.437 65.378,73.198 66.868,74.16C68.459,75.159 72.47,82.329 72.869,84.487C72.937,84.867 72.354,85.408 71.893,85.502C71.628,85.554 71.47,85.459 71.416,85.218C71.213,84.307 68.249,77.003 65.764,75.189C65.578,75.051 65.334,75.004 65.09,75.055C64.815,75.115 64.576,75.295 64.433,75.55C64.321,75.752 64.192,75.963 64.066,76.167C63.791,76.616 63.506,77.079 63.36,77.535C62.934,78.893 62.552,80.359 62.635,81.867C62.698,83.249 62.77,84.817 62.79,86.332C62.799,86.791 62.846,87.248 62.893,87.689C62.939,88.127 62.987,88.581 62.995,89.035C63.004,89.675 62.81,90.159 62.447,90.396C62.103,90.62 61.635,90.604 61.091,90.35C60.948,90.286 60.816,90.227 60.593,90.16L60.545,90.147L60.506,90.177C60.233,90.394 59.996,90.598 59.766,90.798C59.499,91.03 59.246,91.248 58.992,91.432C58.092,92.086 56.99,92.319 55.796,92.103C54.221,91.817 52.617,90.748 51.712,89.38C50.196,87.036 49.374,84.378 49.197,81.255C49.172,80.795 49.201,80.274 49.283,79.75C49.565,77.925 50.435,76.66 51.609,76.366C52.681,76.098 53.871,76.705 54.862,78.035C55.433,78.808 55.943,79.602 56.484,80.444C56.76,80.875 57.039,81.307 57.329,81.743C57.858,82.541 58.374,83.374 58.874,84.18C59.143,84.616 59.413,85.053 59.69,85.49C59.916,85.832 60.121,85.998 60.311,85.998M51.922,77.953C51.822,77.953 51.734,77.971 51.656,78.001C50.902,78.291 50.622,79.886 50.941,82.064C51.239,84.093 51.766,85.826 52.553,87.359C53.36,88.916 54.464,89.876 56.031,90.384C57.379,90.812 58.741,90.212 59.343,88.933C59.467,88.663 59.441,88.292 59.283,88.067C58.093,86.371 56.976,84.583 55.897,82.853C55.226,81.78 54.533,80.669 53.832,79.598C52.975,78.297 52.347,77.953 51.922,77.953M56.895,90.329C56.631,90.329 56.359,90.288 56.089,90.202C54.574,89.712 53.503,88.78 52.721,87.272C51.945,85.757 51.423,84.044 51.129,82.036C50.827,79.983 51.066,78.432 51.725,78.179C52.212,77.995 52.903,78.534 53.673,79.704C54.373,80.772 55.066,81.882 55.736,82.956C56.817,84.686 57.935,86.477 59.127,88.177C59.247,88.347 59.266,88.643 59.171,88.852C58.731,89.785 57.857,90.329 56.895,90.329" style="fill-rule:nonzero;"/>
                        </g>
                        <g transform="matrix(1,0,0,-1,634.051,3292.83)">
                            <path d="M80.519,72.538C78.184,68.358 75.601,64.368 73.686,64.204C73.181,64.154 72.751,64.381 72.378,64.86C71.565,66.623 71.235,68.876 71.059,70.416C70.837,72.547 70.902,72.713 71.527,74.297C71.593,74.461 71.663,74.64 71.741,74.838C74.15,81.016 75.96,86.166 75.549,91.496C75.508,92.02 75.385,92.582 75.175,93.212C74.903,94.004 74.362,94.548 73.693,94.707C73.112,94.84 72.505,94.656 72.032,94.189C71.585,93.75 71.224,93.162 70.932,92.689C69.887,91.006 69.501,88.968 69.126,86.992C68.393,83.059 68.529,80.343 68.718,76.584C68.749,75.964 68.781,75.316 68.812,74.631C68.951,71.462 69.382,67.122 70.138,65.32C70.823,63.791 71.913,62.679 73.055,62.344C73.316,62.269 73.577,62.23 73.84,62.23C74.435,62.23 75.031,62.427 75.622,62.817L75.622,62.818C77.846,64.293 79.797,67.164 81.562,70.263M73.559,88.988C73.515,87.723 73.369,86.539 73.128,85.472C72.815,84.081 71.666,80.048 70.898,78.998C70.439,79.889 70.652,84.258 71.105,86.149C71.817,89.174 72.49,91.155 73.111,92.039C73.141,92.081 73.202,92.109 73.262,92.109C73.275,92.109 73.287,92.108 73.299,92.104C73.379,92.09 73.435,92.028 73.46,91.924C73.677,91.042 73.625,90.135 73.575,89.256L73.559,88.988Z" style="fill-rule:nonzero;"/>
                        </g>
                        <g transform="matrix(1,0,0,-1,635.172,3304.23)">
                            <path d="M104.372,87.579C104.345,87.097 104.272,86.613 104.093,86.166C103.637,85.071 103.5,83.862 102.996,82.766C101.657,80.158 100.307,77.598 98.956,75.039C98.621,74.435 98.228,73.874 97.823,73.359C97.62,73.006 97.299,72.74 97.025,72.476C96.075,71.82 94.753,72.28 94.264,73.484C93.739,74.827 93.498,76.196 93.447,77.581C93.393,80.546 93.788,83.455 94.23,86.369C94.452,87.825 94.732,89.239 94.904,90.691C94.98,91.368 94.901,92.079 94.87,92.796C94.824,92.983 94.635,93.16 94.424,93.429C92.962,92.296 91.962,90.868 91.195,89.269C90.346,87.422 89.602,85.537 88.811,83.65C88.558,83.101 88.366,82.509 88.056,82.003C87.84,81.506 87.248,81.358 86.776,81.509C86.292,81.708 85.88,82.199 85.885,82.774C85.789,84.731 85.777,86.741 85.717,88.748C85.709,89.37 85.606,89.984 85.55,90.602C84.875,90.401 84.741,89.766 84.537,89.221C83.877,87.583 83.323,85.907 82.77,84.229C82.398,83.192 82.131,82.114 81.806,81.08C81.662,80.685 81.517,80.289 81.362,79.94C81.099,79.439 80.578,79.201 80.153,79.357C79.622,79.551 79.34,79.909 79.224,80.378C79.039,81.129 78.784,81.969 78.741,82.732C78.622,84.782 78.539,86.884 78.563,88.945C78.548,90.381 78.686,91.783 79.201,93.025C79.43,93.667 79.776,94.224 80.169,94.785C80.324,94.943 80.702,94.975 80.951,94.948C81.588,94.907 82.092,94.041 81.712,93.625C80.616,92.38 80.525,90.791 80.397,89.152C80.342,87.614 80.333,86.08 80.559,84.183C80.892,84.787 80.99,85.178 81.134,85.574C81.746,87.208 82.276,88.787 82.946,90.377C83.247,91.122 83.759,91.789 84.176,92.448C84.403,92.707 84.629,92.966 84.926,93.135C85.958,93.847 87.161,93.28 87.438,91.962C87.587,91.354 87.607,90.684 87.616,90.063C87.586,89.005 87.557,87.95 87.575,86.896C87.551,86.797 87.61,86.755 87.751,86.576C87.953,86.929 88.121,87.231 88.276,87.58C88.899,88.783 89.414,90.025 90.083,91.234C90.776,92.538 91.765,93.629 92.87,94.636C93.416,95.162 94.094,95.556 95.001,95.203C96.053,94.863 96.402,94.03 96.623,93.139C96.853,92.2 96.943,91.249 96.772,90.372C96.502,88.721 96.233,87.069 95.963,85.416C95.546,82.794 95.272,80.181 95.268,77.451C95.273,76.444 95.421,75.452 95.983,74.35C96.304,74.617 96.6,74.787 96.72,75.084C99.037,79.021 101.425,82.868 102.574,87.423C102.621,87.62 102.718,87.819 102.766,88.015C102.875,88.36 103.101,88.619 103.55,88.562C103.952,88.5 104.399,88.061 104.372,87.579" style="fill-rule:nonzero;"/>
                        </g>
                        <g transform="matrix(1,0,0,-1,635.162,3303.84)">
                            <path d="M96.08,71.687C95.905,71.687 95.726,71.713 95.548,71.766C94.94,71.948 94.444,72.418 94.184,73.054C93.687,74.331 93.418,75.682 93.362,77.185C93.308,80.183 93.719,83.179 94.146,85.99C94.228,86.523 94.317,87.052 94.406,87.579C94.556,88.47 94.71,89.392 94.82,90.309C94.876,90.815 94.845,91.335 94.813,91.884C94.803,92.055 94.793,92.227 94.785,92.399C94.76,92.495 94.657,92.618 94.526,92.774C94.491,92.814 94.456,92.856 94.419,92.902C93.142,91.893 92.119,90.561 91.292,88.833C90.673,87.492 90.1,86.102 89.545,84.759C89.334,84.246 89.123,83.732 88.908,83.219C88.823,83.034 88.746,82.846 88.668,82.659C88.516,82.286 88.357,81.903 88.146,81.56C87.907,81.004 87.249,80.869 86.757,81.024C86.187,81.259 85.795,81.815 85.799,82.382C85.739,83.627 85.711,84.925 85.684,86.18C85.668,86.902 85.653,87.628 85.632,88.352C85.626,88.763 85.578,89.178 85.532,89.581C85.513,89.747 85.494,89.912 85.477,90.078C85.022,89.889 84.872,89.461 84.713,89.01C84.688,88.937 84.662,88.866 84.635,88.795C83.977,87.159 83.415,85.457 82.873,83.813C82.638,83.16 82.445,82.49 82.259,81.842C82.144,81.444 82.03,81.048 81.907,80.658L81.888,80.605C81.75,80.231 81.609,79.845 81.458,79.507C81.177,78.968 80.609,78.696 80.13,78.874C79.605,79.065 79.273,79.431 79.141,79.962C79.106,80.109 79.067,80.258 79.028,80.411C78.862,81.049 78.691,81.71 78.656,82.333C78.514,84.783 78.457,86.759 78.478,88.553C78.46,90.256 78.665,91.564 79.123,92.669C79.367,93.353 79.737,93.928 80.101,94.446C80.31,94.661 80.762,94.673 80.971,94.651C81.408,94.622 81.749,94.256 81.879,93.93C81.997,93.633 81.965,93.355 81.792,93.167C80.752,91.985 80.636,90.486 80.514,88.899L80.501,88.751C80.445,87.19 80.446,85.785 80.627,84.108C80.789,84.438 80.878,84.701 80.964,84.954C80.994,85.042 81.023,85.128 81.054,85.213C81.251,85.737 81.439,86.257 81.625,86.769C82.031,87.885 82.412,88.938 82.869,90.021C83.096,90.584 83.442,91.102 83.777,91.604C83.889,91.772 84.001,91.939 84.106,92.105C84.343,92.378 84.577,92.647 84.889,92.826C85.373,93.159 85.938,93.24 86.437,93.037C86.993,92.814 87.395,92.286 87.541,91.588C87.691,90.977 87.713,90.306 87.722,89.67C87.691,88.627 87.661,87.554 87.68,86.505L87.677,86.481C87.67,86.452 87.675,86.441 87.747,86.35C87.911,86.638 88.06,86.912 88.2,87.225C88.466,87.739 88.715,88.266 88.955,88.774C89.284,89.47 89.623,90.188 90.01,90.886C90.622,92.039 91.514,93.127 92.816,94.313C93.276,94.757 94.01,95.304 95.046,94.898C96.146,94.543 96.503,93.664 96.724,92.768C96.982,91.718 97.034,90.774 96.875,89.96L96.067,85.005C95.597,82.055 95.376,79.529 95.373,77.058C95.378,76.293 95.457,75.27 96.025,74.106C96.067,74.139 96.108,74.172 96.149,74.202C96.378,74.38 96.56,74.521 96.642,74.727L97.133,75.561C99.243,79.133 101.425,82.829 102.491,87.054C102.516,87.155 102.553,87.256 102.589,87.355C102.625,87.455 102.66,87.55 102.683,87.645C102.83,88.107 103.137,88.314 103.572,88.263C104.025,88.193 104.506,87.716 104.476,87.18C104.444,86.6 104.353,86.141 104.19,85.737C103.979,85.229 103.833,84.683 103.692,84.157C103.531,83.55 103.363,82.922 103.093,82.332C101.801,79.819 100.55,77.444 99.049,74.599C98.742,74.045 98.369,73.492 97.907,72.905C97.741,72.614 97.491,72.38 97.248,72.152C97.198,72.106 97.149,72.06 97.101,72.013C96.788,71.796 96.439,71.687 96.08,71.687M94.45,93.169L94.509,93.094C94.565,93.022 94.62,92.957 94.671,92.896C94.817,92.722 94.934,92.584 94.973,92.427C94.983,92.237 94.993,92.065 95.003,91.896C95.034,91.362 95.067,90.811 95.009,90.288C94.898,89.364 94.744,88.441 94.592,87.547C94.503,87.022 94.414,86.493 94.333,85.962C93.908,83.158 93.498,80.172 93.553,77.19C93.607,75.711 93.872,74.38 94.361,73.124C94.598,72.544 95.051,72.114 95.602,71.949C96.085,71.805 96.574,71.88 96.981,72.161C97.018,72.198 97.068,72.245 97.118,72.292C97.351,72.509 97.591,72.734 97.75,73.013C98.214,73.603 98.582,74.149 98.882,74.691C100.382,77.533 101.633,79.907 102.922,82.416C103.184,82.988 103.349,83.606 103.51,84.206C103.651,84.74 103.798,85.29 104.015,85.809C104.169,86.193 104.256,86.631 104.287,87.191C104.31,87.621 103.908,88.018 103.545,88.074C103.204,88.123 102.982,87.96 102.866,87.593C102.842,87.496 102.805,87.39 102.767,87.289C102.731,87.191 102.698,87.098 102.676,87.007C101.602,82.756 99.414,79.048 97.296,75.463L96.812,74.644C96.717,74.402 96.508,74.24 96.265,74.051C96.197,74 96.126,73.944 96.054,73.884L95.963,73.808L95.909,73.913C95.414,74.884 95.19,75.854 95.183,77.057C95.186,79.539 95.408,82.075 95.879,85.037L96.688,89.995C96.841,90.783 96.791,91.699 96.54,92.722C96.333,93.563 95.999,94.389 94.982,94.719C94.255,94.999 93.629,94.831 92.945,94.173C91.659,93.002 90.779,91.929 90.177,90.795C89.792,90.1 89.454,89.385 89.127,88.693C88.885,88.182 88.636,87.655 88.371,87.143C88.211,86.782 88.036,86.472 87.843,86.135L87.773,86.013L87.618,86.208C87.525,86.322 87.466,86.393 87.49,86.512C87.472,87.563 87.501,88.634 87.531,89.67C87.522,90.291 87.502,90.951 87.356,91.546C87.222,92.183 86.862,92.66 86.366,92.861C85.923,93.038 85.434,92.968 84.99,92.665C84.699,92.497 84.475,92.24 84.258,91.992C84.16,91.835 84.048,91.667 83.935,91.497C83.605,91.004 83.265,90.495 83.045,89.949C82.589,88.868 82.207,87.818 81.804,86.705C81.617,86.19 81.429,85.672 81.232,85.148C81.202,85.063 81.173,84.98 81.144,84.893C81.037,84.579 80.917,84.224 80.652,83.743L80.509,83.485L80.474,83.779C80.257,85.605 80.251,87.092 80.312,88.763L80.323,88.914C80.449,90.534 80.567,92.064 81.65,93.295C81.774,93.43 81.793,93.633 81.703,93.859C81.591,94.141 81.298,94.439 80.954,94.461C80.696,94.485 80.364,94.445 80.247,94.324C79.901,93.828 79.538,93.268 79.3,92.6C78.85,91.516 78.65,90.231 78.669,88.553C78.647,86.761 78.704,84.79 78.845,82.344C78.88,81.74 79.049,81.088 79.211,80.459C79.25,80.305 79.29,80.155 79.326,80.009C79.443,79.537 79.726,79.224 80.196,79.053C80.582,78.914 81.052,79.14 81.288,79.59C81.433,79.917 81.574,80.3 81.709,80.671L81.727,80.719C81.848,81.105 81.962,81.499 82.076,81.896C82.263,82.546 82.458,83.219 82.69,83.869C83.236,85.52 83.799,87.224 84.458,88.863C84.484,88.931 84.509,89.002 84.534,89.074C84.704,89.559 84.898,90.11 85.533,90.3L85.644,90.334L85.655,90.217C85.673,90.012 85.697,89.807 85.721,89.603C85.767,89.196 85.816,88.776 85.822,88.355C85.843,87.632 85.859,86.907 85.874,86.183C85.901,84.93 85.928,83.634 85.989,82.385C85.985,81.808 86.418,81.37 86.822,81.204C87.228,81.073 87.777,81.183 87.978,81.648C88.188,81.989 88.342,82.366 88.492,82.731C88.571,82.921 88.649,83.11 88.734,83.296C88.948,83.807 89.16,84.319 89.371,84.832C89.925,86.177 90.5,87.569 91.119,88.915C91.977,90.705 93.041,92.076 94.376,93.111L94.45,93.169Z" style="fill-rule:nonzero;"/>
                        </g>
                    </g>
                </g>
            </g>
        </g>
    </g>
</svg>
